<svg xmlns="http://www.w3.org/2000/svg" xmlns:xlink="http://www.w3.org/1999/xlink" version="1.1" width="256" height="256" viewBox="0 0 256 256" xml:space="preserve">

<defs>
</defs>
<g style="stroke: none; stroke-width: 0; stroke-dasharray: none; stroke-linecap: butt; stroke-linejoin: miter; stroke-miterlimit: 10; fill: none; fill-rule: nonzero; opacity: 1;" transform="translate(1.4065934065934016 1.4065934065934016) scale(2.81 2.81)" >
	<path d="M 64.797 62.374 c -0.665 0 -1.334 -0.22 -1.891 -0.672 l -15.275 -12.42 c -0.7 -0.57 -1.107 -1.425 -1.107 -2.328 V 21.015 c 0 -1.657 1.343 -3 3 -3 s 3 1.343 3 3 v 24.512 l 14.168 11.519 c 1.285 1.046 1.48 2.936 0.436 4.221 C 66.533 61.996 65.669 62.374 64.797 62.374 z" style="stroke: none; stroke-width: 1; stroke-dasharray: none; stroke-linecap: butt; stroke-linejoin: miter; stroke-miterlimit: 10; fill: rgb(0,0,0); fill-rule: nonzero; opacity: 1;" transform=" matrix(1 0 0 1 0 0) " stroke-linecap="round" />
	<path d="M 12.048 41.776 c -0.795 0 -1.559 -0.316 -2.121 -0.879 l -9.048 -9.048 c -1.172 -1.171 -1.172 -3.071 0 -4.242 c 1.171 -1.172 3.071 -1.172 4.242 0 l 6.927 6.926 l 6.926 -6.926 c 1.172 -1.172 3.072 -1.171 4.243 0 c 1.172 1.172 1.172 3.071 0 4.243 l -9.047 9.048 C 13.606 41.46 12.844 41.776 12.048 41.776 z" style="stroke: none; stroke-width: 1; stroke-dasharray: none; stroke-linecap: butt; stroke-linejoin: miter; stroke-miterlimit: 10; fill: rgb(0,0,0); fill-rule: nonzero; opacity: 1;" transform=" matrix(1 0 0 1 0 0) " stroke-linecap="round" />
	<path d="M 67.888 86.477 H 31.16 c -12.192 0 -22.112 -9.92 -22.112 -22.112 v -10.64 c 0 -1.657 1.343 -3 3 -3 s 3 1.343 3 3 v 10.64 c 0 8.885 7.228 16.112 16.112 16.112 h 36.728 C 76.772 80.477 84 73.249 84 64.364 V 27.636 c 0 -8.884 -7.228 -16.112 -16.112 -16.112 H 31.16 c -8.884 0 -16.112 7.228 -16.112 16.112 v 11.14 c 0 1.657 -1.343 3 -3 3 s -3 -1.343 -3 -3 v -11.14 c 0 -12.192 9.919 -22.112 22.112 -22.112 h 36.728 C 80.08 5.524 90 15.443 90 27.636 v 36.729 C 90 76.557 80.08 86.477 67.888 86.477 z" style="stroke: none; stroke-width: 1; stroke-dasharray: none; stroke-linecap: butt; stroke-linejoin: miter; stroke-miterlimit: 10; fill: rgb(0,0,0); fill-rule: nonzero; opacity: 1;" transform=" matrix(1 0 0 1 0 0) " stroke-linecap="round" />
</g>
</svg>